<svg width="36" height="9" viewBox="0 0 36 9" fill="none" xmlns="http://www.w3.org/2000/svg">
<g opacity="0.6">
<path d="M18 9.00009C20.2941 9.00009 22.1538 7.14035 22.1538 4.84624C22.1538 2.55213 20.2941 0.692383 18 0.692383C15.7059 0.692383 13.8461 2.55213 13.8461 4.84624C13.8461 7.14035 15.7059 9.00009 18 9.00009Z" fill="white"/>
<path d="M31.846 9.00009C34.1401 9.00009 35.9999 7.14035 35.9999 4.84624C35.9999 2.55213 34.1401 0.692383 31.846 0.692383C29.5519 0.692383 27.6921 2.55213 27.6921 4.84624C27.6921 7.14035 29.5519 9.00009 31.846 9.00009Z" fill="white"/>
<path d="M4.15386 9.00009C6.44797 9.00009 8.30771 7.14035 8.30771 4.84624C8.30771 2.55213 6.44797 0.692383 4.15386 0.692383C1.85974 0.692383 0 2.55213 0 4.84624C0 7.14035 1.85974 9.00009 4.15386 9.00009Z" fill="white"/>
</g>
</svg>
